<svg xmlns="http://www.w3.org/2000/svg" width="1440" height="900" viewBox="0 0 1440 900" role="img" aria-labelledby="title desc"><title id="title">Three roles. One service.</title><desc id="desc">DarziXpress / implementation detail System illustration, not a product screenshot.</desc><rect width="1440" height="900" fill="#111610"/><g font-family="Arial, sans-serif"><text x="80" y="110" fill="#f2f0e8" font-size="48">Three roles. One service.</text><text x="80" y="157" fill="#adb7a5" font-size="23">DarziXpress / implementation detail</text><path d="M80 208H1360" stroke="#dbb5fa" opacity=".25"/><circle cx="111" cy="314" r="25" stroke="#dbb5fa" fill="none" stroke-width="2"/><text x="111" y="321" text-anchor="middle" fill="#dbb5fa" font-size="20">1</text><text x="164" y="325" fill="#f2f0e8" font-size="32">Customer</text><path d="M500 315H770V444H881" fill="none" stroke="#dbb5fa" stroke-opacity=".45" stroke-width="2"/><circle cx="111" cy="439" r="25" stroke="#dbb5fa" fill="none" stroke-width="2"/><text x="111" y="446" text-anchor="middle" fill="#dbb5fa" font-size="20">2</text><text x="164" y="450" fill="#f2f0e8" font-size="32">Tailor</text><path d="M500 440H770V444H881" fill="none" stroke="#dbb5fa" stroke-opacity=".45" stroke-width="2"/><circle cx="111" cy="564" r="25" stroke="#dbb5fa" fill="none" stroke-width="2"/><text x="111" y="571" text-anchor="middle" fill="#dbb5fa" font-size="20">3</text><text x="164" y="575" fill="#f2f0e8" font-size="32">Administrator</text><path d="M500 565H770V444H881" fill="none" stroke="#dbb5fa" stroke-opacity=".45" stroke-width="2"/><rect x="880" y="345" width="470" height="198" rx="12" fill="#dbb5fa" fill-opacity=".09" stroke="#dbb5fa" stroke-opacity=".5"/><text x="920" y="432" fill="#dbb5fa" font-size="31">DarziXpress</text><text x="920" y="482" fill="#c1cbb9" font-size="23">Connected workflow</text><text x="80" y="721" fill="#adb7a5" font-size="23">Separate journeys connect booking, fulfillment, and management.</text><text x="80" y="845" fill="#adb7a5" font-size="18">SYSTEM ILLUSTRATION</text><path d="M1130 838h230" stroke="#dbb5fa" stroke-width="3"/></g></svg>