<svg xmlns="http://www.w3.org/2000/svg" width="1440" height="900" viewBox="0 0 1440 900" role="img" aria-labelledby="title desc"><title id="title">One publishing workflow</title><desc id="desc">Tecaudex / implementation detail System illustration, not a product screenshot.</desc><rect width="1440" height="900" fill="#111610"/><g font-family="Arial, sans-serif"><text x="80" y="110" fill="#f2f0e8" font-size="48">One publishing workflow</text><text x="80" y="157" fill="#adb7a5" font-size="23">Tecaudex / implementation detail</text><path d="M80 208H1360" stroke="#f1bd6d" opacity=".25"/><circle cx="111" cy="314" r="25" stroke="#f1bd6d" fill="none" stroke-width="2"/><text x="111" y="321" text-anchor="middle" fill="#f1bd6d" font-size="20">1</text><text x="164" y="325" fill="#f2f0e8" font-size="32">CMS content</text><path d="M500 315H770V444H881" fill="none" stroke="#f1bd6d" stroke-opacity=".45" stroke-width="2"/><circle cx="111" cy="439" r="25" stroke="#f1bd6d" fill="none" stroke-width="2"/><text x="111" y="446" text-anchor="middle" fill="#f1bd6d" font-size="20">2</text><text x="164" y="450" fill="#f2f0e8" font-size="32">Public pages</text><path d="M500 440H770V444H881" fill="none" stroke="#f1bd6d" stroke-opacity=".45" stroke-width="2"/><circle cx="111" cy="564" r="25" stroke="#f1bd6d" fill="none" stroke-width="2"/><text x="111" y="571" text-anchor="middle" fill="#f1bd6d" font-size="20">3</text><text x="164" y="575" fill="#f2f0e8" font-size="32">CDN media</text><path d="M500 565H770V444H881" fill="none" stroke="#f1bd6d" stroke-opacity=".45" stroke-width="2"/><rect x="880" y="345" width="470" height="198" rx="12" fill="#f1bd6d" fill-opacity=".09" stroke="#f1bd6d" stroke-opacity=".5"/><text x="920" y="432" fill="#f1bd6d" font-size="31">Tecaudex</text><text x="920" y="482" fill="#c1cbb9" font-size="23">Connected workflow</text><text x="80" y="721" fill="#adb7a5" font-size="23">Content updates connect to discoverable pages and media delivery.</text><text x="80" y="845" fill="#adb7a5" font-size="18">SYSTEM ILLUSTRATION</text><path d="M1130 838h230" stroke="#f1bd6d" stroke-width="3"/></g></svg>