<svg xmlns="http://www.w3.org/2000/svg" width="1440" height="810" viewBox="0 0 1440 810" role="img" aria-labelledby="title desc">
<title id="title">TradeM8 — system illustration</title><desc id="desc">Different signals. One analysis workflow. Chart patterns, Market context, Indicator validation, Confidence analysis. The chart is illustrative, not market or performance data.</desc>
<defs><radialGradient id="ground" cx="85%" cy="15%" r="90%"><stop stop-color="#191c42"/><stop offset="1" stop-color="#0b0d0c"/></radialGradient></defs>
<rect width="1440" height="810" rx="16" fill="url(#ground)"/>
<g font-family="Arial, sans-serif">
<text x="84" y="113" font-size="58" font-weight="600" fill="#f5f1e9">TradeM8</text>
<text x="86" y="160" font-size="23" fill="#bcbeb6">Different signals. One analysis workflow.</text>
<text x="1356" y="96" text-anchor="end" font-size="14" letter-spacing="2" fill="#a4b5ff">SYSTEM ILLUSTRATION</text>
<path d="M84 204H1356" stroke="#a4b5ff" stroke-opacity=".25"/>
<g transform="translate(84 280)"><path d="M0 290H528M0 205H528M0 120H528M0 35H528" stroke="#343951" stroke-width="1"/><g fill="#899bf0" stroke="#899bf0"><path d="M26 132v120" stroke-width="2"/><rect x="13" y="160" width="26" height="42" rx="2" opacity="0.5"/><path d="M75 167v120" stroke-width="2"/><rect x="62" y="195" width="26" height="54" rx="2" opacity="0.9"/><path d="M124 107v120" stroke-width="2"/><rect x="111" y="135" width="26" height="66" rx="2" opacity="0.9"/><path d="M173 62v120" stroke-width="2"/><rect x="160" y="90" width="26" height="42" rx="2" opacity="0.5"/><path d="M222 114v120" stroke-width="2"/><rect x="209" y="142" width="26" height="54" rx="2" opacity="0.9"/><path d="M271 42v120" stroke-width="2"/><rect x="258" y="70" width="26" height="66" rx="2" opacity="0.9"/><path d="M320 14v120" stroke-width="2"/><rect x="307" y="42" width="26" height="42" rx="2" opacity="0.5"/><path d="M369 64v120" stroke-width="2"/><rect x="356" y="92" width="26" height="54" rx="2" opacity="0.9"/><path d="M418 24v120" stroke-width="2"/><rect x="405" y="52" width="26" height="66" rx="2" opacity="0.9"/><path d="M467 2v120" stroke-width="2"/><rect x="454" y="30" width="26" height="42" rx="2" opacity="0.5"/></g><path d="M8 258 80 230 146 245 218 173 282 188 350 125 420 158 515 82" fill="none" stroke="#e2bb80" stroke-width="3"/></g><g transform="translate(738 290)"><text x="0" y="28" fill="#dce2ff" font-size="24">Layers of context</text><g transform="translate(0 65)"><path d="M0 0H526" stroke="#575d86"/><text x="0" y="31" fill="#e0e4f4" font-size="22">Pattern detection</text><text x="526" y="31" text-anchor="end" fill="#a4b5ff" font-size="18">YOLOv8</text></g><g transform="translate(0 150)"><path d="M0 0H526" stroke="#575d86"/><text x="0" y="31" fill="#e0e4f4" font-size="22">News &amp; sentiment</text><text x="526" y="31" text-anchor="end" fill="#a4b5ff" font-size="18">Transformers</text></g><g transform="translate(0 235)"><path d="M0 0H526" stroke="#575d86"/><text x="0" y="31" fill="#e0e4f4" font-size="22">Signal validation</text><text x="526" y="31" text-anchor="end" fill="#a4b5ff" font-size="18">EMA · RSI · ADX</text></g></g>
<path d="M84 674H1356" stroke="#a4b5ff" stroke-opacity=".25"/>
<text x="86" y="731" font-size="19" fill="#a4b5ff">Chart patterns</text><text x="410" y="731" font-size="19" fill="#a4b5ff">Market context</text><text x="734" y="731" font-size="19" fill="#a4b5ff">Indicator validation</text><text x="1058" y="731" font-size="19" fill="#a4b5ff">Confidence analysis</text>
</g></svg>
